<?xml version="1.0" encoding="utf-8"?>
<!-- Generator: Adobe Illustrator 26.0.3, SVG Export Plug-In . SVG Version: 6.00 Build 0)  -->
<svg version="1.1" id="Layer_1" xmlns="http://www.w3.org/2000/svg" xmlns:xlink="http://www.w3.org/1999/xlink" x="0px" y="0px"
	 viewBox="0 0 446.53 252.77" style="enable-background:new 0 0 446.53 252.77;" xml:space="preserve">
<style type="text/css">
	.st0{fill:#D1D3D4;}
	.st1{fill:#233452;}
	.st2{fill:#FFFFFF;}
	.st3{fill:none;stroke:#FFFFFF;stroke-miterlimit:10;}
	.st4{fill:#DE9A77;}
	.st5{fill:#688DD4;}
	.st6{fill:#253350;}
	.st7{fill:none;stroke:#233452;stroke-miterlimit:10;}
	.st8{fill:none;stroke:#FFFFFF;stroke-width:2;stroke-linejoin:round;stroke-miterlimit:10;}
	.st9{fill:#FFFFFF;stroke:#FFFFFF;stroke-width:2;stroke-linejoin:round;stroke-miterlimit:10;}
</style>
<polygon class="st4" points="110.42,29.26 167.03,29.26 138.73,78.24 195.03,78.24 223.2,29.26 279.55,29.26 195.03,175.59 
	138.92,175.59 166.88,126.3 110.42,126.3 82.51,175.59 26.25,175.59 "/>
<polygon class="st5" points="82.51,175.59 111.03,224.56 138.92,175.59 110.42,126.3 "/>
<polygon class="st5" points="419.2,78.54 390.7,29.26 335.51,126.55 279.55,29.26 195.03,175.59 223.12,224.56 279.12,126.91 
	335.9,224.56 336.05,224.29 336.21,224.56 "/>
<polygon class="st5" points="138.73,78.24 167.03,29.26 195.03,78.24 "/>
<polygon class="st6" points="26.25,175.59 54.34,224.56 111.03,224.56 82.51,175.59 "/>
<polygon class="st6" points="110.42,126.3 138.92,175.59 166.88,126.3 "/>
<polygon class="st6" points="336.95,29.11 307.69,78.39 335.3,126.91 390.94,29.26 "/>
<polygon class="st6" points="195.03,175.59 223.12,224.56 166.88,224.56 138.92,175.59 "/>
<polygon class="st6" points="335.9,224.56 279.55,224.56 251.2,175.59 279.12,126.91 "/>
</svg>
